<?xml version="1.0" encoding="UTF-8" standalone="no"?>
<!-- Created with Inkscape (http://www.inkscape.org/) -->
<svg xmlns:rdf="http://www.w3.org/1999/02/22-rdf-syntax-ns#" xmlns="http://www.w3.org/2000/svg" xmlns:cc="http://web.resource.org/cc/" xmlns:dc="http://purl.org/dc/elements/1.1/" xmlns:svg="http://www.w3.org/2000/svg" xmlns:inkscape="http://www.inkscape.org/namespaces/inkscape" xmlns:sodipodi="http://sodipodi.sourceforge.net/DTD/sodipodi-0.dtd" xmlns:ns1="http://sozi.baierouge.fr" xmlns:xlink="http://www.w3.org/1999/xlink" id="Layer_1" xml:space="preserve" version="1.0" viewBox="0 0 281.288 264.09" inkscape:version="0.91 r13725">
<path id="path3" style="fill-rule:evenodd" d="m9.947 106.25c-3.672-9.248-3.96-18.14-0.72-27.356 3.24-9.252 12.852-18.792 19.8-27.36 6.66-8.64 12.132-16.704 20.88-23.796 8.892-7.164 23.4-14.976 31.716-18.72 8.064-3.744 11.16-2.16 16.92-3.6 5.687-1.656 10.547-5.724 17.637-5.4 7.02 0.324 16.2 5.76 24.48 7.56 8.32 1.584 15.77 0.252 24.88 2.52 8.89 2.304 17.71 3.528 28.8 11.16 11.16 7.596 25.16 20.88 37.44 33.876 12.13 12.924 27.22 30.636 34.95 42.84 7.53 11.986 9.44 21.166 10.44 29.196 1.01 7.99-0.43 13.93-4.32 18.36 2.78 4.1 4.86 9.65 6.12 16.92 1.23 7.24 3.6 17.06 1.44 26.28-2.27 9.07-5.58 17.28-14.4 28.08-9.03 10.8-24.15 28.22-38.55 36.04-14.51 7.52-34.96 8.35-47.16 9.72-12.21 1.22-17.79-2.02-25.2-1.8-7.53 0.25-10.84 3.92-19.12 3.23-8.42-0.82-20.45-0.97-30.24-7.92-9.754-7.19-17.098-21.34-27.718-33.84-10.8-12.6-25.776-29.66-36.036-40.35-10.26-10.55-18.288-15.37-25.2-22.68-7.056-7.49-15.444-12.75-16.56-21.6-1.151-8.96 2.088-19.19 9.721-31.36z"/>
<path id="path5" style="fill-rule:evenodd;fill:#ff0000" d="m269.97 144.81c2.56-2.2 4.07-5.44 4.68-9.72 0.54-4.39 0.44-10.08-1.43-16.24-2.09-6.22-4.83-12.09-10.44-20.516-5.69-8.64-14.62-20.34-23.04-30.24-8.5-9.864-17.79-20.268-27.04-28.44-9.32-8.316-19.33-15.768-28.08-20.556-8.82-4.644-17.93-6.372-24.12-7.56-6.19-1.368-7.88 0.504-13-0.36-5.43-1.008-13.35-3.708-18.36-5.04-5.04-1.404-8.06-2.412-11.16-2.88-3.09-0.504-4.46-0.432-7.56 0.36-3.34 0.72-8.28 3.456-11.876 4.32-3.708 0.756-5.148-0.72-9.72 0.72-4.644 1.368-11.448 4.284-17.64 7.92-6.228 3.564-12.852 7.38-19.476 13.68-6.804 6.336-15.12 17.64-20.52 23.796-5.364 6.012-8.136 7.128-11.52 12.24-3.672 5.004-8.136 10.908-9.36 18-1.116 7.092-0.324 14.94 2.52 24.116-3.276 5.26-5.724 10.01-7.2 14.4-1.548 4.22-2.34 7.56-1.8 11.56 0.54 4.03 0.792 7.31 5.04 12.6 4.212 5.29 13.428 12.78 20.16 18.72 6.552 5.76 12.564 8.82 19.44 15.84 6.876 6.95 15.336 18.33 21.636 25.92 6.156 7.49 10.944 13.54 15.48 19.12 4.464 5.4 7.308 9.21 11.16 13.68 3.746 4.35 5.146 9.65 11.156 12.96 5.98 3.24 16.56 6.12 24.12 6.84 7.35 0.47 13.43-2.81 20.2-2.88 6.62-0.04 12.06 2.77 19.8 2.88 7.7-0.04 17.24-0.83 26.28-2.52 8.93-1.8 18.65-2.7 27.36-7.56 8.64-4.97 16.56-13.79 24.16-21.6 7.52-7.96 16.05-16.89 20.88-25.24 4.6-8.46 6.55-16.49 7.2-24.48 0.5-8.06-2.27-16.92-3.6-22.68-1.37-5.69-2.81-9.36-4.33-11.16zm-145.51-33.16c0.65-5.79 2.2-8.89 5.04-9.72 2.81-0.82 6.52 0.9 11.52 5.04 6.02-4.53 11.16-5.72 15.88-3.96 4.68 1.84 8.5 6.63 11.88 14.76 5.94 0.4 9.65 2.34 11.52 6.12 1.8 3.71 1.51 9.07-0.72 16.24 5.29 5.94 7.16 10.73 5.76 14.76-1.48 3.96-6.23 6.91-14.4 9-3.89 6.23-7.42 9.57-11.16 10.44-3.78 0.83-7.2-1.23-10.84-5.76-7.23 2.01-13.06 2.3-17.64 0.72-4.68-1.59-7.74-4.9-9.72-10.08-6.62-2.38-10.65-5.55-12.24-9.36-1.58-3.92-0.57-8.39 2.88-13.68-1.33-9.4-0.97-16.13 1.08-20.2 2.02-4.1 5.69-5.54 11.16-4.32z"/>
<path id="path7" style="fill-rule:evenodd;fill:#ffffff" d="m137.06 137.61c1.73-1.98 3.28-2.88 5.04-3.24 1.66-0.36 3.86 0.4 5.08 1.44 1.15 0.94 1.69 2.63 1.76 4.68-2.16 0.94-4.1 1.22-6.12 0.72-2.05-0.5-3.92-1.66-5.76-3.6z"/>
<radialGradient id="XMLID_2_" gradientUnits="userSpaceOnUse" cy="135.5" cx="143.77" r="122.45">
	<stop id="stop10" style="stop-color:#000000" offset=".0048"/>
	<stop id="stop12" style="stop-color:#2a2a2a" offset="1"/>
</radialGradient>
<path id="path14" style="opacity:.45;fill-rule:evenodd;fill:url(#XMLID_2_)" d="m148.94 19.458c-0.07-5.364-0.07-7.92 1.12-3.24 1.15 4.644 5.36 17.316 6.12 30.636 0.72 13.212 1.37 40.5-1.8 48.24-3.39 7.486-13.68 1.8-17.68-2.88-3.99-4.896-7.38-24.12-6.12-25.2 1.3-1.008 10.3 22.5 13.68 19.44 3.1-3.348 5.08-26.856 5.8-38.16 0.75-11.376-1.19-23.4-1.12-28.836zm-62.997 16.2c3.492 7.884 11.736 27.432 16.557 38.916 4.83 11.304 10.16 27.106 12.24 28.796 1.98 1.44 3.21-9.104-0.36-19.436-3.81-10.512-16.053-33.048-21.597-42.48-5.652-9.396-10.332-12.852-11.52-13.716-1.224-0.936 1.116 0.036 4.68 7.92zm10.079 68.072c-2.988-4.892-12.096-18.788-12.6-18.356-0.504 0.54 6.372 16.816 9.36 21.596 2.88 4.72 7.268 6.88 7.918 6.48 0.47-0.57-1.833-5.11-4.678-9.72zm-8.639 16.2c-6.084-4.96-17.316-15.84-28.44-17.64-11.232-1.76-36.18 6.2-38.196 7.2-1.908 0.8 16.38-3.34 26.28-1.44 9.864 2.06 23.94 9.36 32.076 13.32 7.992 3.86 13.932 9.87 15.48 9.72 1.296-0.39-1.296-6.33-7.2-11.16zm7.56 47.56c-3.816 2.02-6.624 5.94-9 9-2.484 2.99-9.144 10.94-5.4 9 3.78-2.2 25.197-18.22 27.717-21.24 2.34-3.06-9.645 1.12-13.317 3.24zm86.797-59.44c-4.28 4.54-0.04 3.71 2.88 1.8 2.81-2.08 6.69-7.45 14.04-13.316 7.27-5.976 27.43-19.188 29.52-21.6 1.84-2.376-9.83 1.548-17.64 7.2-7.96 5.652-24.41 21.096-28.8 25.916zm6.48-29.156c3.49-2.736 11.09-11.196 15.84-15.12 4.71-4.068 12.45-7.524 12.24-8.28-0.44-0.684-8.53 0.252-14.04 4.32-5.62 4.068-16.74 16.056-19.08 19.44-2.45 3.096 1.55 2.232 5.04-0.36zm18.36 63.036c-6.12 1.19-7.92 2.99-3.6 3.6 4.43 0.5 19.55-0.47 29.52 0 9.86 0.4 23.61 3.28 29.19 2.52 5.44-0.86 6.84-5.58 3.24-7.2-3.85-1.65-15.8-2.77-25.59-2.52-9.9 0.11-26.61 2.38-32.76 3.6zm-10.08 30.24c-6.77-2.95-8.35-0.07-3.24 4.32 5.15 4.35 25.13 13.1 33.84 21.24 8.6 7.99 16.13 26.71 17.32 26.31 0.82-0.79-3.1-20.73-11.2-29.55-8.17-8.82-29.95-19.22-36.72-22.32zm36 15.12c2.81 1.98 9.68 5.47 13 9.36 3.16 3.96 5.57 13.9 6.11 13.68 0.51-0.5-0.57-11.92-3.23-16.2-3.03-4.35-10.37-8.24-13.72-9.72-3.35-1.58-5.36-0.22-5.76 0.36-0.43 0.4 0.86 0.54 3.6 2.52zm-73.08 59.08c-0.76-4.76 1.73-10.52 1.08-17.28-0.87-6.88-3.96-24.73-5.4-23.44-1.44 1.22-0.4 23.4-3.24 31-2.99 7.45-13.86 11.48-14.44 14.04-0.57 2.37 6.09-0.4 10.8 0.72 4.54 1.08 14.65 6.51 16.6 5.76 1.8-0.94-4.72-6.16-5.4-10.8zm-27.4-66.28c0.15-2.88-2.09-2.41-3.24 0-1.22 2.37-2.45 9.5-3.96 14.04-1.73 4.43-5.79 11.56-5.4 12.24 0.4 0.43 5.76-4.61 7.92-9 2.09-4.54 4.4-14.37 4.68-17.28zm47.2 10.44c2.3 4.97 13.97 21.46 17.64 29.2 3.56 7.59 3.1 16.3 3.6 15.84 0.32-0.76 1.73-12.42-1.08-19.84-2.92-7.6-12.46-20.59-15.84-24.84-3.42-4.28-6.62-5.18-4.32-0.36z"/>
<metadata><rdf:RDF><cc:Work><dc:format>image/svg+xml</dc:format><dc:type rdf:resource="http://purl.org/dc/dcmitype/StillImage"/><cc:license rdf:resource="http://creativecommons.org/licenses/publicdomain/"/><dc:publisher><cc:Agent rdf:about="http://openclipart.org/"><dc:title>Openclipart</dc:title></cc:Agent></dc:publisher><dc:title>Poppy (Remembrance Day)</dc:title><dc:date>2007-11-13T19:09:22</dc:date><dc:description>A little late for this year, but while the subject is on my mind, I thought I might make some Rememberance Day images. &#13;\n&#13;\nBased on PD photo of poppy on lapel found on wikipedia.</dc:description><dc:source>https://openclipart.org/detail/8257/poppy-(remembrance-day)-by-gerald_g-8257</dc:source><dc:creator><cc:Agent><dc:title>Gerald_G</dc:title></cc:Agent></dc:creator><dc:subject><rdf:Bag><rdf:li>armistice</rdf:li><rdf:li>commonwealth</rdf:li><rdf:li>externalsource</rdf:li><rdf:li>flower</rdf:li><rdf:li>poppy</rdf:li><rdf:li>remembrance</rdf:li><rdf:li>war</rdf:li></rdf:Bag></dc:subject></cc:Work><cc:License rdf:about="http://creativecommons.org/licenses/publicdomain/"><cc:permits rdf:resource="http://creativecommons.org/ns#Reproduction"/><cc:permits rdf:resource="http://creativecommons.org/ns#Distribution"/><cc:permits rdf:resource="http://creativecommons.org/ns#DerivativeWorks"/></cc:License></rdf:RDF></metadata></svg>
